<svg id="Layer_1" data-name="Layer 1" xmlns="http://www.w3.org/2000/svg" viewBox="0 0 56 56"><defs><style>.cls-1{fill:#00019e;}</style></defs><title>ball</title><path class="cls-1" d="M32.74,4.74a28,28,0,1,0,28,28A28,28,0,0,0,32.74,4.74ZM58.67,31l-2.11,1.6-6.9-5.38,2.42-8.41,2.64.05A25.83,25.83,0,0,1,58.67,31ZM53.3,16.85l-1.81,0a1.22,1.22,0,0,0-1.16.87L47.7,26.8l-4.21,1.14-9.75-6.6V16.69l7.9-5.35A1.18,1.18,0,0,0,42.07,10l-.59-1.72A26.15,26.15,0,0,1,53.3,16.85ZM42.11,29.42,38.24,40.61h-11L23.36,29.42l9.38-6.34ZM26.36,7.53a26.3,26.3,0,0,1,6.38-.79,25.81,25.81,0,0,1,6.38.79L40,10.05,32.74,15l-7.25-4.9ZM24,8.25,23.4,10a1.21,1.21,0,0,0,.46,1.38l7.88,5.33v4.65L22,27.94,17.77,26.8l-2.63-9.15A1.22,1.22,0,0,0,14,16.82h0l-1.79,0A26.12,26.12,0,0,1,24,8.25ZM10.76,18.88l2.64-.05,2.42,8.41-6.9,5.38L6.8,31A25.73,25.73,0,0,1,10.76,18.88Zm1,26.79-.52,1.73A25.79,25.79,0,0,1,6.76,33.49L8.23,34.6a1.14,1.14,0,0,0,.69.22,1.3,1.3,0,0,0,.74-.24l7.53-5.87,4.2,1.14,4,11.57-2.89,3.71-9.44-.31A1.21,1.21,0,0,0,11.8,45.67ZM23.09,56.88a26.14,26.14,0,0,1-10.32-7.51l.77-2.53,8.74.28,3,8.24Zm9.65,1.86a25.59,25.59,0,0,1-7.31-1.06l1.51-1a1.18,1.18,0,0,0,.41-1.38l-3.23-8.92L27,42.61H38.47l2.89,3.72-3.21,8.85a1.22,1.22,0,0,0,.41,1.47l1.49,1A25.59,25.59,0,0,1,32.74,58.74Zm9.64-1.86-2.17-1.52,3-8.24,8.74-.29.77,2.54A26.17,26.17,0,0,1,42.38,56.88ZM53.67,45.64a1.16,1.16,0,0,0-1.19-.82L43,45.13l-2.88-3.71,4-11.57,4.21-1.14,7.55,5.89a1.19,1.19,0,0,0,.7.22,1.24,1.24,0,0,0,.73-.23l1.45-1.1A25.88,25.88,0,0,1,54.2,47.4Z" transform="translate(-4.74 -4.74)"/><path class="cls-1" d="M36.2,10.69a1,1,0,0,0,.3.05,1,1,0,0,0,.31-2,13.05,13.05,0,0,0-8.15,0,1,1,0,0,0,.62,1.9A11.06,11.06,0,0,1,36.2,10.69Z" transform="translate(-4.74 -4.74)"/><path class="cls-1" d="M9.7,30.21a1,1,0,0,0,1-1,11.08,11.08,0,0,1,2.14-6.57,1,1,0,0,0-.22-1.4,1,1,0,0,0-1.4.22A13.1,13.1,0,0,0,8.7,29.21,1,1,0,0,0,9.7,30.21Z" transform="translate(-4.74 -4.74)"/><path class="cls-1" d="M17,48.54a1,1,0,0,0-1.62,1.18A13.12,13.12,0,0,0,22,54.51a1.06,1.06,0,0,0,.31.05,1,1,0,0,0,.31-2A11.11,11.11,0,0,1,17,48.54Z" transform="translate(-4.74 -4.74)"/><path class="cls-1" d="M48.49,48.54a11.09,11.09,0,0,1-5.59,4.07,1,1,0,0,0,.31,2,1.12,1.12,0,0,0,.31-.05,13.14,13.14,0,0,0,6.59-4.79,1,1,0,0,0-.22-1.4A1,1,0,0,0,48.49,48.54Z" transform="translate(-4.74 -4.74)"/><path class="cls-1" d="M54.77,29.21a1,1,0,0,0,2,0,13.16,13.16,0,0,0-2.51-7.75,1,1,0,0,0-1.62,1.18A11.07,11.07,0,0,1,54.77,29.21Z" transform="translate(-4.74 -4.74)"/><path class="cls-1" d="M27.64,30.52l2.21-1.34a1,1,0,1,0-1-1.72L26,29.15a1.2,1.2,0,0,0-.5,1.44l2.86,7.72a1,1,0,0,0,.94.65,1.07,1.07,0,0,0,.35-.06,1,1,0,0,0,.59-1.29Z" transform="translate(-4.74 -4.74)"/></svg>