<svg id="Layer_1" data-name="Layer 1" xmlns="http://www.w3.org/2000/svg" viewBox="0 0 32 56"><defs><style>.cls-1{fill:#00019e;}</style></defs><title>flag</title><path class="cls-1" d="M48.67,18.2V8.25a1.16,1.16,0,0,0-.37-.86c-.66-.64-3.62-2.62-13.65-1.4-8.15,1-12.28.5-13.77.21V5.74a1,1,0,0,0-2,0V43H18a1.2,1.2,0,0,0-1.21,1.2v13.4a3.13,3.13,0,0,0,6.26,0V44.24A1.2,1.2,0,0,0,21.79,43h-.91V29.67c2,.33,6.28.69,14-.26,8.51-1,11.24.31,11.88.75a1.22,1.22,0,0,0,.68.22,1.25,1.25,0,0,0,.56-.14,1.21,1.21,0,0,0,.65-1.07V18.33l.07-.07ZM21,45v12.6a1.11,1.11,0,0,1-2.22,0V45Zm11.5-17.38c-6.72.67-10.25.23-11.6,0V19.08a46.75,46.75,0,0,0,11.6.07Zm0-10.52c-6.56.61-10.2.17-11.6-.09V8.23a45.66,45.66,0,0,0,11.6,0ZM46.65,27.87c-1.86-.69-5.39-1.26-12-.45l-.15,0v-8.5l.83-.09c7-.86,10.11-.08,11.32.45Zm0-10.69c-1.93-.61-5.42-1.07-11.57-.32l-.58.07V8l.4,0c8.09-1,11,.19,11.75.67Z" transform="translate(-16.74 -4.74)"/></svg>