<svg id="Layer_1" data-name="Layer 1" xmlns="http://www.w3.org/2000/svg" viewBox="0 0 34 56"><defs><style>.cls-1{fill:#00019e;}</style></defs><title>formation</title><path class="cls-1" d="M48.54,4.74H16.94a1.2,1.2,0,0,0-1.2,1.2v53.6a1.2,1.2,0,0,0,1.2,1.2h31.6a1.2,1.2,0,0,0,1.2-1.2V5.94A1.2,1.2,0,0,0,48.54,4.74Zm-22.15,2H39.08v5.87H26.39Zm12.69,52H26.39V52.86H39.08Zm8.66,0H41.08V52.06a1.2,1.2,0,0,0-1.2-1.2H25.59a1.2,1.2,0,0,0-1.2,1.2v6.68H17.74v-25H25a7.83,7.83,0,0,0,15.54,0h7.23Zm-9.25-25a5.84,5.84,0,0,1-11.5,0Zm-11.5-2a5.83,5.83,0,0,1,11.5,0Zm20.75,0H40.51a7.83,7.83,0,0,0-15.54,0H17.74v-25h6.65v6.67a1.2,1.2,0,0,0,1.2,1.2H39.88a1.2,1.2,0,0,0,1.2-1.2V6.74h6.66Z" transform="translate(-15.74 -4.74)"/><path class="cls-1" d="M22.6,40.39a2.86,2.86,0,1,0,2.86,2.86A2.87,2.87,0,0,0,22.6,40.39Zm0,3.72a.86.86,0,0,1,0-1.72.86.86,0,0,1,0,1.72Z" transform="translate(-15.74 -4.74)"/><path class="cls-1" d="M39.08,19.63a2.86,2.86,0,1,0,2.86-2.86A2.86,2.86,0,0,0,39.08,19.63Zm2.86-.86a.86.86,0,1,1-.86.86A.87.87,0,0,1,41.94,18.77Z" transform="translate(-15.74 -4.74)"/><path class="cls-1" d="M41.34,42.66l-3.63-.6a1,1,0,0,0-.33,2l1.28.21a12.3,12.3,0,0,1-11.23,0,1,1,0,1,0-1,1.73,15.05,15.05,0,0,0,6.8,1.63,13.7,13.7,0,0,0,6.07-1.42l-.32.76a1,1,0,0,0,.53,1.31.91.91,0,0,0,.39.08,1,1,0,0,0,.92-.61l1.44-3.39a1.18,1.18,0,0,0,0-1A1.24,1.24,0,0,0,41.34,42.66Z" transform="translate(-15.74 -4.74)"/><path class="cls-1" d="M25.14,17.88a1,1,0,0,0-1.41.05l-.95,1-.94-1a1,1,0,0,0-1.41-.05,1,1,0,0,0-.05,1.42l1,1.09-1,1.1a1,1,0,0,0,.05,1.41,1,1,0,0,0,.68.28,1,1,0,0,0,.73-.32l.94-1,.95,1a1,1,0,0,0,.73.32,1,1,0,0,0,.68-.28,1,1,0,0,0,.05-1.41l-1-1.1,1-1.09A1,1,0,0,0,25.14,17.88Z" transform="translate(-15.74 -4.74)"/><path class="cls-1" d="M41.26,41.33a1,1,0,0,0,1.41,0l.94-1,1,1a1,1,0,0,0,.72.31A1,1,0,0,0,46,39.92l-1-1.1,1-1.1a1,1,0,1,0-1.45-1.36l-1,1-.94-1a1,1,0,0,0-1.46,1.36l1,1.1-1,1.1A1,1,0,0,0,41.26,41.33Z" transform="translate(-15.74 -4.74)"/></svg>