<svg id="Layer_1" data-name="Layer 1" xmlns="http://www.w3.org/2000/svg" viewBox="0 0 56 32"><defs><style>.cls-1{fill:#00019e;}</style></defs><title>gametime</title><path class="cls-1" d="M39.51,26.86a7.26,7.26,0,0,0-2,10.06,7.25,7.25,0,1,0,2-10.06Zm7,10.36a5.25,5.25,0,1,1-5.87-8.7,5.25,5.25,0,0,1,7.29,1.41A5.26,5.26,0,0,1,46.5,37.22Z" transform="translate(-4.74 -16.74)"/><path class="cls-1" d="M59.8,21.77a5.46,5.46,0,0,0-7.66-1.51,15.52,15.52,0,0,0-17.45.14L5.28,40.54h0a1.25,1.25,0,0,0-.33,1.71l4,5.93a1.23,1.23,0,0,0,1,.56,1.12,1.12,0,0,0,.4-.07L31,41.5a15,15,0,0,0,21,4.11,15.48,15.48,0,0,0,6.3-16.14A5.62,5.62,0,0,0,59.8,21.77ZM25.44,29.16l.8-.56,1.32,2L23,33.69l-1.31-2ZM56.5,35.33A13.3,13.3,0,0,1,50.92,44a13,13,0,0,1-18.26-3.61c-.08-.11-.14-.23-.24-.4A1.19,1.19,0,0,0,31,39.41L10.23,46.59,7,41.76l13-8.91,1.31,2a2,2,0,0,0,1.27.85,2.33,2.33,0,0,0,.38,0,1.92,1.92,0,0,0,1.1-.35l4.58-3.13a2,2,0,0,0,.53-2.76l-1.33-2,7.93-5.43A13.22,13.22,0,0,1,56.5,35.33Zm1.22-7.93A15.55,15.55,0,0,0,56,24a14.34,14.34,0,0,0-2.14-2.44,3.42,3.42,0,0,1,2-.23,3.5,3.5,0,0,1,2.25,1.5A3.64,3.64,0,0,1,57.72,27.4Z" transform="translate(-4.74 -16.74)"/><path class="cls-1" d="M12.31,26.13l4.49,1.93a1,1,0,0,0,.4.09,1,1,0,0,0,.92-.61,1,1,0,0,0-.53-1.31L13.1,24.29a1,1,0,0,0-.79,1.84Z" transform="translate(-4.74 -16.74)"/><path class="cls-1" d="M23.71,23.69h0a1,1,0,0,0,1-1l-.09-5a1,1,0,0,0-1-1,1,1,0,0,0-1,1l.09,4.95A1,1,0,0,0,23.71,23.69Z" transform="translate(-4.74 -16.74)"/><path class="cls-1" d="M19.62,25.47a1,1,0,0,0,.84.45,1,1,0,0,0,.83-1.56l-3.65-5.49A1,1,0,1,0,16,20Z" transform="translate(-4.74 -16.74)"/></svg>