<svg id="Layer_1" data-name="Layer 1" xmlns="http://www.w3.org/2000/svg" viewBox="0 0 56 44"><defs><style>.cls-1{fill:#00019e;}</style></defs><title>games</title><path class="cls-1" d="M50.78,34.94a9.89,9.89,0,1,0,10,9.89A9.94,9.94,0,0,0,50.78,34.94Zm6.91,6a7.59,7.59,0,0,1,1,3l-1.52-1.18Zm-3.06-3A8,8,0,0,1,56.16,39l-.95,3.29-.74.19-2.69-1.8v-.81l2.34-1.57Zm-3.85-1a8.32,8.32,0,0,1,1.59.16l-1.59,1.07L49.19,37.1A8.32,8.32,0,0,1,50.78,36.94Zm-3.9,1,2.9,1.95v.81l-2.69,1.8-.74-.19-.77-2.67-.23-.58A8,8,0,0,1,46.88,38Zm-3,3,.53,1.83L42.88,44A7.75,7.75,0,0,1,43.87,40.94Zm1.06,9.22,1.91.06L47.49,52A8.27,8.27,0,0,1,44.93,50.16Zm2.14-1.93-2.72-.08-.81-.06a8.07,8.07,0,0,1-.56-1.7l2.79-2.15.73.2,1.09,3.12Zm4.62,4.43a6.84,6.84,0,0,1-.91.06,7,7,0,0,1-.92-.06l-1.18-3.23.52-.68h3.16l.52.67Zm.44-5.91h-2.7l-1-2.74,2.31-1.55L53.09,44ZM54.07,52l.65-1.78,1.91-.06A7.86,7.86,0,0,1,54.07,52ZM58,48.11l-3.52.12L54,47.56l1.09-3.12.73-.2L58.06,46l.53.33A7.65,7.65,0,0,1,58,48.11Z" transform="translate(-4.74 -10.74)"/><path class="cls-1" d="M40.23,52.72H37.1c1.76-1.26,2.08-2.61,2-3.59a3.36,3.36,0,0,0-1.93-2.63l-3.76-1.82A3.38,3.38,0,0,1,31.79,43l-2.95-6.62v0l0,0-2-4.42a1.6,1.6,0,0,0-.23-.38L27.38,30a8.54,8.54,0,0,1,1.82-2.52l10-9.58a1,1,0,1,0-1.39-1.44L27.81,26a10.78,10.78,0,0,0-2.24,3.1l-.85,1.78-.1,0-1.2.37a3.43,3.43,0,0,1-4.2-2,10.35,10.35,0,0,1-.53-1.91l3.63-3.46a14.24,14.24,0,0,0,1.76-2l6.7-9.52a1,1,0,0,0-.24-1.39,1,1,0,0,0-1.4.24l-6.69,9.52a11.85,11.85,0,0,1-1.51,1.74l-3.65,3.47c-1.45-.16-5.19.06-8.58,5.71a5.52,5.52,0,0,0-3.23,1.94A4.24,4.24,0,0,0,4.86,37c.46,2.22,2.23,4.06,5,5.16a16.78,16.78,0,0,1,4.52,2.62,18.17,18.17,0,0,1,4.39,5.15,7.39,7.39,0,0,0,2.84,2.79H19.27a1,1,0,0,0,0,2h21a1,1,0,0,0,0-2ZM16.68,27.85h.07a12.75,12.75,0,0,0,.6,2.1A5.43,5.43,0,0,0,24,33.19l1.07-.33.33.74-2.22.94a1,1,0,0,0,.38,1.92,1,1,0,0,0,.39-.08l2.26-1,.36.81-2.21.93a1,1,0,0,0,.39,1.92,1,1,0,0,0,.38-.07l2.26-1,.37.83-2.22.94a1,1,0,0,0,.39,1.92.84.84,0,0,0,.38-.08l2.26-1L30,43.82c0,.09.09.16.13.25-3.11,2.65-7.23,1.27-8.28.86a23,23,0,0,0-6.17-6.47,16.49,16.49,0,0,1-1.48-1.15c2.9-2.59,2.17-6.65,1-9.19A4.57,4.57,0,0,1,16.68,27.85Zm-3.25,1.24c.68,1.6,1.63,4.83-.69,6.81a14.88,14.88,0,0,1-2.27-3.33A12.3,12.3,0,0,1,13.43,29.09ZM35,51.68a10.37,10.37,0,0,1-4.94,1h-.21C27,52.61,22.16,52,20.51,49a20.29,20.29,0,0,0-4.86-5.72,18.85,18.85,0,0,0-5.06-2.94c-1.49-.6-3.36-1.73-3.77-3.7a2.24,2.24,0,0,1,.28-1.89,3.16,3.16,0,0,1,1.67-1.06,17,17,0,0,0,3.13,4.27l0,0a18.48,18.48,0,0,0,2.58,2.15,21.69,21.69,0,0,1,5.78,6.14,9.16,9.16,0,0,0,2.23,2.52,14,14,0,0,0,8.62,2.6,23.4,23.4,0,0,0,5.29-.65A6.7,6.7,0,0,1,35,51.68Zm-10.65-4.1a10.47,10.47,0,0,0,1.28.08,8.72,8.72,0,0,0,5.73-2,5.47,5.47,0,0,0,1.19.82l3.76,1.82a1.52,1.52,0,0,1,.41.29C30.26,50.28,26.34,48.88,24.32,47.58Z" transform="translate(-4.74 -10.74)"/><path class="cls-1" d="M16.48,52.73H12a1,1,0,1,0,0,2h4.5a1,1,0,0,0,0-2Z" transform="translate(-4.74 -10.74)"/></svg>