<svg id="Layer_1" data-name="Layer 1" xmlns="http://www.w3.org/2000/svg" viewBox="0 0 56 54"><defs><style>.cls-1{fill:#00019e;}</style></defs><title>keeper</title><path class="cls-1" d="M58.56,27.07a3.45,3.45,0,0,0-1.38-.19l1.13-3.05a3.39,3.39,0,0,0-2-4.36,3.24,3.24,0,0,0-1.41-.19,3.38,3.38,0,0,0-2-4.09,3.32,3.32,0,0,0-2.55.1,3.43,3.43,0,0,0-1.18.91,3.27,3.27,0,0,0-1.33-.93,3.31,3.31,0,0,0-2.58.11,3.47,3.47,0,0,0-1.75,1.92L39.17,29.05l-.86-1.47a3.07,3.07,0,0,0-4.28-1,3.15,3.15,0,0,0-1.41,3.34l2.86,13.36a1.45,1.45,0,0,1,0,.8l-.58,1.57a2.23,2.23,0,0,0-.56.16,2,2,0,0,0-1,1.12l-2,5.39a2,2,0,0,0,1.17,2.55L45.3,59.61a1.84,1.84,0,0,0,.69.13,2,2,0,0,0,.83-.18,2,2,0,0,0,1-1.12l2-5.4a2,2,0,0,0-.32-1.92l.32-.86a4.42,4.42,0,0,1,1.31-1.87l2.16-1.82a11.67,11.67,0,0,0,3.41-4.86l3.79-10.28A3.39,3.39,0,0,0,58.56,27.07ZM45.65,58.68l.34-.94h0Zm.33-1L33.14,53l.66-1.79,6.4,2.41a.92.92,0,0,0,.36.07,1,1,0,0,0,.35-1.94l-6.42-2.42.63-1.71.43.16L48,52.36Zm12.67-27L54.85,41A9.66,9.66,0,0,1,52,45l-2.16,1.82a6.52,6.52,0,0,0-1.9,2.7l-.21.59-6-2.23-4.93-1.83.49-1.34a3.4,3.4,0,0,0,.14-1.92L34.57,29.47a1.18,1.18,0,0,1,.52-1.23,1.06,1.06,0,0,1,.83-.14,1.09,1.09,0,0,1,.67.5l1.69,2.87-.12.33a1,1,0,0,0,.59,1.29,1,1,0,0,0,.34.06,1,1,0,0,0,.94-.66L45.39,18a1.4,1.4,0,0,1,.73-.8,1.36,1.36,0,0,1,1-.05,1.4,1.4,0,0,1,.79,1.79L43.3,31.47a1,1,0,0,0,1.88.69l4.63-12.53h0l.63-1.71a1.45,1.45,0,0,1,.74-.8,1.34,1.34,0,0,1,1,0A1.39,1.39,0,0,1,53,18.86L47.72,33.11a1,1,0,0,0,.59,1.28,1.12,1.12,0,0,0,.35.06h.12a2.27,2.27,0,0,0,.25-.06l.1-.06a.9.9,0,0,0,.2-.14l.08-.07a.89.89,0,0,0,.19-.31l4.29-11.61a1.36,1.36,0,0,1,.74-.8,1.29,1.29,0,0,1,1-.05,1.39,1.39,0,0,1,.78,1.79L52.14,34.75a.89.89,0,0,0-.06.39,1,1,0,0,0,.65.89,1.07,1.07,0,0,0,.35.06h0l.1,0a.65.65,0,0,0,.24-.06l.11,0a.9.9,0,0,0,.2-.14l.08-.07a1.08,1.08,0,0,0,.19-.31l2.09-5.65a1.4,1.4,0,0,1,.73-.8,1.29,1.29,0,0,1,1,0A1.39,1.39,0,0,1,58.65,30.74Z" transform="translate(-4.74 -5.74)"/><path class="cls-1" d="M50.33,37.38l-7.25-2.69a2,2,0,0,0-2.55,1.17L39,40a2,2,0,0,0,1.17,2.55l7.24,2.69a2.11,2.11,0,0,0,.7.13,2,2,0,0,0,.83-.19A2,2,0,0,0,50,44l1.52-4.11A2,2,0,0,0,50.33,37.38Zm-2.22,6-7.23-2.67,1.51-4.11,7.23,2.68Z" transform="translate(-4.74 -5.74)"/><path class="cls-1" d="M31.27,45.33l-.66-2.84h0L30,39.73a2,2,0,0,0-.88-1.24,2.2,2.2,0,0,0-.53-.22l-.38-1.63a1.4,1.4,0,0,1,0-.81l4.5-12.89a3.18,3.18,0,0,0-1-3.5,3.11,3.11,0,0,0-2.31-.68,3,3,0,0,0-2.07,1.18l-1,1.34L23.46,9.08A3.4,3.4,0,0,0,21.93,7a3.29,3.29,0,0,0-2.52-.42A3.35,3.35,0,0,0,18,7.29a3.3,3.3,0,0,0-3.57-1.46,3.38,3.38,0,0,0-2.53,3.8,3.24,3.24,0,0,0-1.42,0A3.38,3.38,0,0,0,8,13.72l.74,3.17a3.26,3.26,0,0,0-1.39,0A3.38,3.38,0,0,0,4.83,21L7.32,31.66a11.67,11.67,0,0,0,2.78,5.25L12,39a4.43,4.43,0,0,1,1.06,2l.21.9a2,2,0,0,0-.55,1.86l1.31,5.61A2,2,0,0,0,16,50.9a2.3,2.3,0,0,0,.45,0l13.35-3.13A2,2,0,0,0,31.27,45.33Zm-17.78-7.7-1.92-2.08a9.72,9.72,0,0,1-2.3-4.34L6.78,20.53a1.37,1.37,0,0,1,1-1.67,1.31,1.31,0,0,1,1,.17,1.44,1.44,0,0,1,.62.88l1.37,5.87a1,1,0,0,0,.15.34l.07.07a1.07,1.07,0,0,0,.19.18l.11.05a.85.85,0,0,0,.22.09l.13,0,.1,0a.91.91,0,0,0,.23,0,1,1,0,0,0,.74-1.2l-1.37-5.86h0L9.92,13.27a1.38,1.38,0,0,1,1-1.68,1.36,1.36,0,0,1,1,.17,1.44,1.44,0,0,1,.62.88L15.38,24.7a1,1,0,0,0,.15.34l.07.08a1.54,1.54,0,0,0,.19.17l.11.06a.83.83,0,0,0,.22.08l.13,0h.1l.23,0a1,1,0,0,0,.74-1.2L14.51,12.19h0l-.63-2.74a1.39,1.39,0,0,1,1-1.68,1.32,1.32,0,0,1,1,.18,1.44,1.44,0,0,1,.62.88l.41,1.78h0l3,13a1,1,0,0,0,1.2.75,1,1,0,0,0,.75-1.2l-3-13a1.38,1.38,0,0,1,1-1.68,1.34,1.34,0,0,1,1,.17,1.41,1.41,0,0,1,.63.89L25,24.59a1,1,0,0,0,1,.78.91.91,0,0,0,.23,0,1,1,0,0,0,.75-1.2l-.08-.35,2-2.63A1.07,1.07,0,0,1,30.46,21a1.17,1.17,0,0,1,.36,1.29l-4.5,12.9a3.45,3.45,0,0,0-.1,1.91l.33,1.4L20.5,39.9l-5.33,1.25L15,40.54A6.41,6.41,0,0,0,13.49,37.63ZM16,48.9l-1.32-5.58.5-.11,12.84-3L28.44,42l-6.66,1.59a1,1,0,0,0,.23,2,.91.91,0,0,0,.23,0l6.66-1.59.43,1.84Z" transform="translate(-4.74 -5.74)"/><path class="cls-1" d="M16.12,36.3l7.52-1.76a2,2,0,0,0,1.48-2.39l-1-4.27a2,2,0,0,0-.88-1.24,2,2,0,0,0-1.51-.25l-7.52,1.77a2,2,0,0,0-1.48,2.39l1,4.27a1.94,1.94,0,0,0,.89,1.24,2,2,0,0,0,1,.3A1.88,1.88,0,0,0,16.12,36.3Zm6.05-8,1,4.26-7.51,1.76-1-4.25Z" transform="translate(-4.74 -5.74)"/></svg>