<svg id="Layer_1" data-name="Layer 1" xmlns="http://www.w3.org/2000/svg" viewBox="0 0 99.48 45"><defs><style>.cls-1{fill:#ef0606;}.cls-2{fill:none;}</style></defs><title>lines</title><polygon class="cls-1" points="71.66 0 48.59 45 41.63 45 64.71 0 71.66 0"/><polygon class="cls-1" points="85.57 0 62.5 45 55.54 45 78.62 0 85.57 0"/><polygon class="cls-1" points="99.48 0 76.4 45 69.45 45 92.53 0 99.48 0"/><polygon class="cls-1" points="30.03 0 6.96 45 0 45 23.08 0 30.03 0"/><polygon class="cls-1" points="43.94 0 20.86 45 13.91 45 36.99 0 43.94 0"/><polygon class="cls-1" points="57.85 0 34.77 45 27.82 45 50.89 0 57.85 0"/><polygon class="cls-2" points="30.03 0 6.96 45 0 45 23.08 0 30.03 0"/><polygon class="cls-2" points="43.94 0 20.86 45 13.91 45 36.99 0 43.94 0"/><polygon class="cls-2" points="57.85 0 34.77 45 27.82 45 50.89 0 57.85 0"/><polygon class="cls-2" points="71.66 0 48.59 45 41.63 45 64.71 0 71.66 0"/><polygon class="cls-2" points="85.57 0 62.5 45 55.54 45 78.62 0 85.57 0"/><polygon class="cls-2" points="99.48 0 76.4 45 69.45 45 92.53 0 99.48 0"/></svg>