<svg id="Layer_1" data-name="Layer 1" xmlns="http://www.w3.org/2000/svg" viewBox="0 0 56 34"><defs><style>.cls-1{fill:#00019e;}</style></defs><title>pitch</title><path class="cls-1" d="M59.54,15.74H5.94a1.2,1.2,0,0,0-1.2,1.2v31.6a1.2,1.2,0,0,0,1.2,1.2h53.6a1.2,1.2,0,0,0,1.2-1.2V16.94A1.2,1.2,0,0,0,59.54,15.74ZM33.74,27a5.84,5.84,0,0,1,0,11.5Zm-27-.6h5.87V39.08H6.74Zm25,12.1a5.83,5.83,0,0,1,0-11.5Zm0-13.52a7.83,7.83,0,0,0,0,15.54v7.23h-25V41.08h6.67a1.2,1.2,0,0,0,1.2-1.2V39a6.33,6.33,0,0,0,0-12.51v-.89a1.2,1.2,0,0,0-1.2-1.2H6.74V17.74h25ZM14.61,37V28.52a4.33,4.33,0,0,1,0,8.43Zm44.13,2.13H52.86V26.39h5.88Zm0-14.69H52.06a1.2,1.2,0,0,0-1.2,1.2v.89a6.33,6.33,0,0,0,0,12.51v.89a1.2,1.2,0,0,0,1.2,1.2h6.68v6.66h-25V40.51a7.83,7.83,0,0,0,0-15.54V17.74h25Zm-7.88,4.13V37a4.33,4.33,0,0,1,0-8.43Z" transform="translate(-4.74 -15.74)"/></svg>