<?xml version="1.0" encoding="utf-8"?>
<!-- Generator: Adobe Illustrator 24.0.0, SVG Export Plug-In . SVG Version: 6.00 Build 0)  -->
<svg version="1.1" id="Layer_1" xmlns="http://www.w3.org/2000/svg" xmlns:xlink="http://www.w3.org/1999/xlink" x="0px" y="0px"
	 viewBox="0 0 55.8 64" style="enable-background:new 0 0 55.8 64;" xml:space="preserve">
<style type="text/css">
	.st0{fill:#00019E;}
</style>
<title>time</title>
<path class="st0" d="M31.3,14.2V12h1.1c0.7,0,1.2-0.5,1.2-1.2c0,0,0,0,0,0V5.2C33.5,4.5,33,4,32.3,4l0,0h-9c-0.7,0-1.2,0.5-1.2,1.1
	c0,0,0,0,0,0.1v5.6c0,0.7,0.5,1.2,1.2,1.2l0,0h1.1v2.2c-2.3,0.3-4.6,1.1-6.7,2.1l-1.9-2.7c-0.3-0.5-0.8-0.8-1.3-1
	c-0.6-0.2-1.2-0.1-1.7,0.2l-2.4,1.7c-0.5,0.3-0.8,0.9-0.8,1.5c0,0.6,0.1,1.1,0.4,1.6l1.9,2.7C2.7,29,2.3,43.6,11,52.8
	s23.3,9.7,32.5,1s9.7-23.3,1-32.5C41,17.5,36.3,15.1,31.3,14.2L31.3,14.2z M24.1,10V6h7.4v4H24.1z M29.2,12v2c-0.5,0-1-0.1-1.4-0.1
	s-1,0-1.4,0.1v-2H29.2z M11.7,16.4c-0.1-0.1-0.1-0.2-0.1-0.3l2.2-1.6c0.1,0,0.2,0.1,0.3,0.2l1.8,2.5c-0.8,0.5-1.6,1.1-2.4,1.6
	L11.7,16.4z M46.5,46.5l-1.1-0.6c-0.5-0.3-1.1-0.1-1.4,0.4c-0.3,0.5-0.1,1.1,0.4,1.4l1.1,0.6c-1.6,2.5-3.8,4.7-6.3,6.3l-0.7-1.1
	c-0.3-0.5-0.9-0.6-1.4-0.4c0,0,0,0,0,0c-0.5,0.3-0.6,0.9-0.4,1.4l0.7,1.1c-2.7,1.4-5.7,2.2-8.7,2.3v-1.4c0-0.6-0.4-1-1-1s-1,0.4-1,1
	v1.4c-3-0.1-6-0.9-8.7-2.3l0.7-1.1c0.3-0.4,0.2-1.1-0.2-1.4c-0.4-0.3-1.1-0.2-1.4,0.2c0,0.1-0.1,0.1-0.1,0.2l-0.7,1.1
	c-2.5-1.6-4.6-3.8-6.3-6.3l1.1-0.6c0.5-0.3,0.6-0.9,0.4-1.4c-0.3-0.5-0.9-0.6-1.4-0.4l-1.1,0.6C7.8,43.8,7,40.9,6.9,38h1.2
	c0.6,0,1-0.4,1-1s-0.4-1-1-1H6.9c0.1-3,0.9-5.9,2.3-8.5l1.1,0.6c0.1,0.1,0.3,0.1,0.5,0.1c0.6,0,1-0.5,1-1c0-0.3-0.2-0.7-0.5-0.8
	l-1.1-0.6c1.6-2.5,3.8-4.7,6.3-6.3l0.7,1.2c0.2,0.5,0.8,0.7,1.3,0.5s0.7-0.8,0.5-1.3c0-0.1-0.1-0.1-0.1-0.2l-0.7-1.1
	c2.7-1.4,5.7-2.2,8.7-2.3v1.4c0,0.6,0.4,1,1,1s1-0.4,1-1V16c3,0.1,6,0.9,8.7,2.3l-0.7,1.1c-0.3,0.5-0.1,1.1,0.4,1.4c0,0,0,0,0,0
	c0.2,0.1,0.3,0.1,0.5,0.1c0.4,0,0.7-0.2,0.9-0.5l0.7-1.1c2.5,1.6,4.7,3.8,6.3,6.3l-1.1,0.6c-0.5,0.3-0.6,0.9-0.4,1.4
	c0.3,0.5,0.9,0.6,1.4,0.4c0,0,0,0,0,0l1.1-0.6c1.4,2.7,2.1,5.6,2.3,8.5h-1.2c-0.6,0-1,0.4-1,1s0.4,1,1,1h1.2
	C48.6,41,47.9,43.9,46.5,46.5z"/>
<path class="st0" d="M27.8,20.4c-0.6,0-1,0.4-1,1s0.4,1,1,1c8,0.1,14.5,6.7,14.4,14.7s-6.7,14.5-14.7,14.4
	c-8-0.1-14.4-6.6-14.4-14.6c0-0.6-0.4-1-1-1s-1,0.4-1,1c-0.1,9.2,7.3,16.8,16.6,16.9s16.8-7.3,16.9-16.6s-7.3-16.8-16.6-16.9
	C27.9,20.4,27.9,20.4,27.8,20.4z"/>
</svg>
