<svg id="Layer_1" data-name="Layer 1" xmlns="http://www.w3.org/2000/svg" viewBox="0 0 507.99 196.05"><defs><style>.cls-1{fill:#fff;}</style></defs><title>bglogo</title><path class="cls-1" d="M74.72,201c1.44.58,5.74,1.9,7.17,2.39H5.65V190.61a55.15,55.15,0,0,0,5.91.28c1,0,2.19,0,3.81-.08,1.37-.05,2.78-.08,4.2-.08H23c1.93-.1,3.66-.18,5.13-.23s2.37-.07,2.54-.07,1,0,4,.14c2.19.1,4.75.2,7.83.31h1.61c2.82.1,5.23.2,7.35.3s3.62.13,4.66.15l3.08,0a58.94,58.94,0,0,0,7.28,5.35A63.24,63.24,0,0,0,74.68,201h0Z" transform="translate(-5.51 -7.48)"/><path class="cls-1" d="M48.39,182.42a22.24,22.24,0,0,1-3.42-1,.51.51,0,0,1-.3-.08.46.46,0,0,0-.29-.08q-3.71-1.53-4.59-3.51a19.62,19.62,0,0,1-1.16-5.28c0-.37-.07-.75-.11-1.15a4,4,0,0,0-.1-.91,4.16,4.16,0,0,1-.09-.92c-.13-.82-.2-3.31-.2-7.5V127.75a1,1,0,0,1,.29-.84,1.44,1.44,0,0,1,.88-.23H45c.51-1.44,1.08-2.83,1.71-4.18l-.82,0c-1.5,0-2.77-.12-3.81-.23L40.47,122a7.84,7.84,0,0,0-1-.08,3,3,0,0,1-1.08-.61,1.86,1.86,0,0,1-.29-1.23v-41A1.37,1.37,0,0,1,38.62,78a3.92,3.92,0,0,1,1.85-.53l1.67-.31A9.82,9.82,0,0,1,43.79,77c1.18-.1,2.32-.18,3.43-.23s2-.08,2.63-.08a31.78,31.78,0,0,1,12,2,18.32,18.32,0,0,1,7.52,5.48,31.22,31.22,0,0,1,5.84,11c.57-.2,1.14-.4,1.7-.58a57.89,57.89,0,0,1,13.6-3.12c0-.17-.09-.34-.14-.51a21.54,21.54,0,0,0-2.25-5Q84.63,81,76.32,76.68q-6.85-3.54-19-4.16c-1.71-.09-3.5-.13-5.36-.13-2.21,0-4.37,0-6.45.08s-4,.08-5.86.08-3.48.17-5,.22-2.83.08-4,.08c-.26,0-1.14,0-2.64-.08s-3.29-.12-5.37-.22H19.08c-1.23,0-2.51,0-3.8-.16H8.63a9,9,0,0,0-2.34.23,1,1,0,0,0-.78,1A.73.73,0,0,0,6,74.3a2.36,2.36,0,0,0,1.07.23H8.53a9.88,9.88,0,0,1,1.67.15c.64,0,1.29,0,2,.08a9.37,9.37,0,0,1,1.56.23q4.89.77,6.54,2.76a9.94,9.94,0,0,1,1.86,6v.46a89.77,89.77,0,0,1,.39,9.42v50.15q0,11-.09,19.68c0,3.47-.17,6.48-.37,9-.14,1.7-.31,3.19-.51,4.5a22.7,22.7,0,0,1-1.67,5.66,4.88,4.88,0,0,1-4,2.76,9.06,9.06,0,0,1-1.37.23c-.52.05-1,.13-1.56.23s-3.95,0-4.47.08-1,.07-1.36.07a1.91,1.91,0,0,0-1.18.31l-.14.12a.75.75,0,0,0-.25.49.76.76,0,0,0,.25.57,1.26,1.26,0,0,0,.53.27,8.62,8.62,0,0,0,2.35.23c1,0,5.18,0,6.62-.07s2.86-.08,4.29-.08h3.32c2-.11,3.68-.18,5.18-.23s2.38-.08,2.64-.08,1.75.05,4.1.15,4.95.21,7.81.31h1.57c2.6.1,5.08.2,7.42.31,2,.08,3.52.13,4.57.15A47.37,47.37,0,0,1,52,183.1c-1.16-.2-2.35-.43-3.57-.68" transform="translate(-5.51 -7.48)"/><path class="cls-1" d="M84.14,176.07a30.82,30.82,0,0,1-10.23,5.85,55.24,55.24,0,0,0,4.61,3.93,41.06,41.06,0,0,0,14.7-7.19q12.3-9.79,13.28-21.74v-1.69a24,24,0,0,0-7.71-18.07A55.27,55.27,0,0,0,81.89,126a43.31,43.31,0,0,0-4.69-1.84,45.56,45.56,0,0,0-4.49-1.23A127.93,127.93,0,0,0,85.31,111a21.25,21.25,0,0,0,4.79-8.46l0-.11-.75.11c-1.33.19-2.68.42-4.06.69a28.37,28.37,0,0,0-9.49,4,18.51,18.51,0,0,1-1.56,4.62,21.51,21.51,0,0,1-5.08,6.75,3.78,3.78,0,0,1-.88.77,9.58,9.58,0,0,0-.88.61,11.78,11.78,0,0,1-4.22,2c-.2.46-.4.92-.6,1.4A41.94,41.94,0,0,0,61,127.88c.31.06.62.11.93.18a32,32,0,0,1,8.79,3.36,36,36,0,0,1,10.16,7.8,33.6,33.6,0,0,1,5.86,9A35.56,35.56,0,0,1,89,155.43a35,35,0,0,1,.69,6.57q0,9.33-5.57,14.07" transform="translate(-5.51 -7.48)"/><path class="cls-1" d="M144.85,149.33a4.79,4.79,0,0,0-1.63-.21c-.72,0-1.58,0-2.58.07s-2,.07-3,.07h-2.3q-2,.13-3.6.21l-1.83.07-1.83-.07-3.73-.21h-2.51c-.86,0-1.74,0-2.64-.14H114.6a4.73,4.73,0,0,0-1.62.21.86.86,0,0,0-.55.91.71.71,0,0,0,.34.63,1.42,1.42,0,0,0,.75.21h1a4.77,4.77,0,0,1,1.15.14,12.52,12.52,0,0,1,1.36.07,5.42,5.42,0,0,1,1.08.21c2.71.75,4.41,1.92,5.08,3.51s1,5.19,1,10.8v24a6,6,0,0,1-.68,3,4.84,4.84,0,0,1-2,1.89,14.72,14.72,0,0,1-4.14,1.61,36.56,36.56,0,0,1-5.08.92,27.75,27.75,0,0,1-3.26.35c-1.08.05-2.08.07-3,.07a51.83,51.83,0,0,1-18.45-3.44A44.6,44.6,0,0,1,75,186.72a55.78,55.78,0,0,1-4.3-3.94l-.15-.15q-1.22-1.26-2.78-3.22a34.09,34.09,0,0,1-3-4.63,65.44,65.44,0,0,1-5.9-13.25,55.93,55.93,0,0,1-2.64-17.74,61.75,61.75,0,0,1,2-16.38,46.6,46.6,0,0,1,1.72-5.08l.06-.14q3.78-9.25,9.62-14a45.93,45.93,0,0,1,6.65-4.56,29.31,29.31,0,0,1,8.54-3.22q3.1-.61,6-1c1.12-.13,2.22-.24,3.31-.32h0c1.55-.12,3-.18,4.51-.18q11.79,0,19.53,3c.5.19,1,.39,1.46.59q6.59,2.78,9.53,6.07c.27.28.51.56.74.84s.43.56.61.84a8,8,0,0,1,.68,1.12l.54,1.12a22.6,22.6,0,0,1,1.16,4c.22,1.26.38,2.27.47,3s.18,1.17.27,1.54a.65.65,0,0,0,.68.56,1,1,0,0,0,.95-.63,6.66,6.66,0,0,0,.27-2.31c0-3.55,0-6.48.14-8.77s.22-4.18.4-5.68.18-2.66.27-3.5.14-1.5.14-2a1.25,1.25,0,0,0-.27-.77.91.91,0,0,0-.32-.23,3.47,3.47,0,0,0-1-.26,21,21,0,0,1-2.3-.14l-2.45-.28c-1.08-.09-2.19-.23-3.32-.42s-2.1-.37-2.91-.56c-.55-.09-1.36-.26-2.44-.49s-2.31-.45-3.67-.63c-1.63-.28-3.41-.51-5.35-.71s-3.92-.32-5.91-.41a9.25,9.25,0,0,0-1.69-.14h-1.7q-4.29,0-9.17.37L91,94.35h0a54.33,54.33,0,0,0-13.15,3c-.66.2-1.31.43-2,.67-1.15.44-2.3.94-3.46,1.5q-2.72,1.33-5.42,3-9.09,5.89-15.87,17.6c-.45.78-.88,1.57-1.29,2.39-.66,1.33-1.27,2.71-1.81,4.13a61.19,61.19,0,0,0-3.68,22,55.28,55.28,0,0,0,4.95,23.77,61.3,61.3,0,0,0,6.44,11,37.6,37.6,0,0,0,4.46,5l.29.26c1,.87,2,1.7,3,2.48A52.27,52.27,0,0,0,68,194.27a59.36,59.36,0,0,0,7.8,4.07,64.79,64.79,0,0,0,10.81,3.38q2.68.59,5.33.9a119.41,119.41,0,0,0,13.16.9,71.67,71.67,0,0,0,7.32-.41c2.72-.29,5.47-.71,8.28-1.27a52.86,52.86,0,0,0,6.84-1.82,45.06,45.06,0,0,0,6.31-2.66,1.61,1.61,0,0,1,.41-.29,2.42,2.42,0,0,0,1.15-1.82,44.74,44.74,0,0,0,.21-5.6V167.28c0-2,0-3.95.13-5.82a7.17,7.17,0,0,1,.07-1.06,7.54,7.54,0,0,0,.07-.91,14.16,14.16,0,0,1,1.29-5.53,5.08,5.08,0,0,1,3.72-2.46c.73-.09,1.31-.19,1.77-.28a6.34,6.34,0,0,1,1.22-.14h.41a1.36,1.36,0,0,0,.74-.21.69.69,0,0,0,.34-.63.87.87,0,0,0-.54-.91" transform="translate(-5.51 -7.48)"/><path class="cls-1" d="M128.51,74.49c-12.42-1.33-29.19-1.17-38.26,4.36C85.53,81.74,88,84.54,88,84.54s2.55-4.32,16-5.39C130.73,77,145.67,84.74,130,89.93c-6.06,2-15,1.59-14.92,2.09s12,.16,19.79-2.15c9.16-2.75,9.55-5.81,9.55-5.81s3.5-7.48-15.91-9.57" transform="translate(-5.51 -7.48)"/><path class="cls-1" d="M104.18,87.09V84.22a4.22,4.22,0,0,0-.44-2.4,1.62,1.62,0,0,0-1.37-.56,4.35,4.35,0,0,0-1.66.43,1,1,0,0,1-.36.1c-.14,0-.22-.11-.31-.27l-.17,2.82.18,0c.28-1.15.87-1.91,1.6-1.91a.72.72,0,0,1,.69.4,2.28,2.28,0,0,1,.14,1.06V84c-1.08.29-3,1-3,3.41,0,1.29.68,2,1.36,2a1.92,1.92,0,0,0,1.66-1.27,3,3,0,0,0,.32,1.06h1.89v-.39c-.55-.09-.5-1-.51-1.73m-2.53.76c-.31,0-.5-.49-.5-1a2.42,2.42,0,0,1,.55-1.48,1.39,1.39,0,0,1,.78-.46c0,1-.08,2.91-.83,2.91m22.67-.37V83.85a5.06,5.06,0,0,0-.26-2,1.1,1.1,0,0,0-.93-.69c-.67,0-1.31.71-1.73,1.58-.16-1-.57-1.57-1.19-1.57s-1.29.8-1.72,1.58a7.14,7.14,0,0,0-.26-1.49l-1.94.23v.39c.33,0,.49.44.49,1.25l0,4.36c0,.82-.15,1.23-.49,1.26v.4H119v-.4c-.34,0-.49-.44-.52-1.25V85.43a7.11,7.11,0,0,1,.12-1.67c.11-.42.37-.86.65-.87.5,0,.44,1,.44,1.61v3c0,.82-.18,1.23-.52,1.26v.4l2.72,0v-.39c-.33,0-.5-.44-.5-1.26V85.64a7.1,7.1,0,0,1,.17-2c.11-.4.34-.77.61-.78.46,0,.43,1,.44,1.56v3c0,.82-.18,1.23-.52,1.26v.39h2.73v-.39c-.34,0-.51-.44-.52-1.26m-9.06-.43,0-2.87a4.12,4.12,0,0,0-.44-2.4,1.62,1.62,0,0,0-1.36-.56,4.35,4.35,0,0,0-1.67.43,1.25,1.25,0,0,1-.37.09c-.13,0-.21-.11-.3-.26l-.17,2.81.18,0c.29-1.15.87-1.9,1.6-1.9a.72.72,0,0,1,.7.4,2.4,2.4,0,0,1,.13,1.05V84c-1.08.29-3,1-3,3.41,0,1.29.69,2,1.37,2a1.94,1.94,0,0,0,1.65-1.27,2.81,2.81,0,0,0,.33,1.06h1.88v-.39c-.55-.1-.5-1-.5-1.73m-2.54.76c-.31,0-.5-.49-.5-1a2.4,2.4,0,0,1,.55-1.48,1.42,1.42,0,0,1,.78-.46c0,1-.08,2.91-.83,2.91m-4.59.4a5.23,5.23,0,0,1-.65,0l2.37-6.73-3.36,0a.65.65,0,0,1-.3,0,.37.37,0,0,1-.24-.27l-.34,2.81.18.08c.17-1,.82-1.58,1.24-1.59a2.11,2.11,0,0,1,.51.07l-2.38,6.71,3.66,0a.59.59,0,0,1,.63.32l.48-3-.19-.09c-.27,1.3-1,1.79-1.61,1.8" transform="translate(-5.51 -7.48)"/><path class="cls-1" d="M179.28,103.05c0-8.89,0-10.53-.12-12.4s-.58-2.92-2.51-3.33a11.73,11.73,0,0,0-2.28-.18c-.65,0-1-.12-1-.52s.41-.53,1.29-.53c3.1,0,6.78.17,8,.17,2.87,0,5.15-.17,7.14-.17,10.58,0,12.45,5.67,12.45,8.77,0,4.79-2.75,7.66-6,10.23,4.8,1.64,10.65,5.79,10.65,12.63,0,6.26-4.86,12.75-15.61,12.75-.71,0-2.4-.12-4.1-.18s-3.51-.17-4.38-.17c-.65,0-1.93,0-3.34.06s-2.86.11-4,.11c-.76,0-1.17-.17-1.17-.58s.23-.47.94-.47a10.06,10.06,0,0,0,2.1-.23c1.17-.24,1.46-1.52,1.7-3.22.29-2.46.29-7.07.29-12.45Zm7,1c0,.47.17.58.4.64a14,14,0,0,0,2.75.18c1.93,0,3.22-.24,4.21-1.11,1.52-1.23,2.4-3.34,2.4-6.2,0-3.92-2.28-9.06-7.31-9.06a10.08,10.08,0,0,0-1.93.11c-.41.12-.52.35-.52,1Zm7.71,4.68a8.39,8.39,0,0,0-4.85-1.41c-1,0-1.64,0-2.51,0-.24,0-.35.11-.35.4v13.86c0,3.86.17,4.85,2,5.62a10.6,10.6,0,0,0,4.27.7c2.63,0,7.07-1.41,7.07-7.49A13.91,13.91,0,0,0,194,108.72" transform="translate(-5.51 -7.48)"/><path class="cls-1" d="M223.25,115c-.29,0-.41.12-.53.47l-3.16,8.36a11.44,11.44,0,0,0-.87,3.57c0,1,.52,1.81,2.34,1.81h.87c.7,0,.88.12.88.47s-.35.58-1,.58c-1.87,0-4.39-.17-6.2-.17-.65,0-3.86.17-6.9.17-.76,0-1.11-.11-1.11-.58s.23-.47.7-.47a17.18,17.18,0,0,0,1.81-.12c2.69-.35,3.8-2.34,5-5.26l14.68-36.72c.7-1.69,1-2.34,1.64-2.34s.87.53,1.46,1.87c1.4,3.22,10.75,27.08,14.5,36,2.22,5.27,3.91,6.08,5.14,6.38a13.32,13.32,0,0,0,2.46.23c.47,0,.76.06.76.47s-.53.58-2.69.58-6.37,0-11-.11c-1.05-.06-1.76-.06-1.76-.47s.24-.47.82-.53a1,1,0,0,0,.53-1.34l-4.68-12.4a.56.56,0,0,0-.58-.41Zm11.93-2.92c.29,0,.35-.18.29-.35l-5.26-14.44c-.06-.24-.12-.53-.3-.53s-.29.29-.35.53l-5.38,14.38c-.06.23,0,.41.24.41Z" transform="translate(-5.51 -7.48)"/><path class="cls-1" d="M269,105.62h.29c2-2.17,10.53-10.88,12.22-12.87s2.93-3.39,2.93-4.38c0-.64-.24-1.05-.82-1.17s-.76-.23-.76-.58.29-.53.93-.53c1.23,0,4.45.17,6,.17,1.81,0,5-.17,6.84-.17.58,0,1,.12,1,.53s-.29.52-.87.52a11.52,11.52,0,0,0-3.4.65A18.55,18.55,0,0,0,287,92.17c-1.81,1.75-10.64,10.52-12.63,12.63,2.1,2.75,13.56,15.08,15.84,17.25,2.58,2.45,5.21,5.09,8.37,6.31a10.19,10.19,0,0,0,3.62.88c.41,0,.76.12.76.47s-.29.58-1.4.58h-5.09c-1.75,0-2.81,0-4-.11-3.16-.3-4.74-1.58-7.25-3.8s-14.1-15.79-15.32-17.49l-.65-.87H269v5.32c0,5.38,0,10,.18,12.51.11,1.64.64,2.92,2.1,3.16a26.36,26.36,0,0,0,2.87.23c.46,0,.76.18.76.47s-.47.58-1.11.58c-3.28,0-7-.17-8.42-.17s-5,.17-7.37.17c-.76,0-1.17-.17-1.17-.58s.23-.47.94-.47a10.06,10.06,0,0,0,2.1-.23c1.17-.24,1.46-1.52,1.7-3.22.29-2.46.29-7.07.29-12.45V103.05c0-8.89,0-10.53-.12-12.4s-.58-2.92-2.51-3.33a11.73,11.73,0,0,0-2.28-.18c-.65,0-1-.12-1-.52s.41-.53,1.29-.53c3.1,0,6.78.17,8.18.17s5.09-.17,7.08-.17c.82,0,1.23.12,1.23.53s-.35.52-.82.52a8.45,8.45,0,0,0-1.64.18c-1.58.29-2,1.28-2.16,3.33-.12,1.87-.12,3.51-.12,12.4Z" transform="translate(-5.51 -7.48)"/><path class="cls-1" d="M336.74,104.68c.17,0,.35-.11.35-.41v-1.22c0-8.89,0-10.53-.12-12.4s-.58-2.92-2.51-3.33a11.73,11.73,0,0,0-2.28-.18c-.65,0-1-.12-1-.52s.41-.53,1.23-.53c3.16,0,6.84.17,8.42.17,1.4,0,5.09-.17,7.37-.17.82,0,1.23.12,1.23.53s-.35.52-1.06.52a10.14,10.14,0,0,0-1.69.18c-1.58.29-2.05,1.28-2.17,3.33-.11,1.87-.11,3.51-.11,12.4v10.29c0,5.38,0,10,.29,12.51.18,1.64.53,2.92,2.28,3.16a26.25,26.25,0,0,0,3,.23c.65,0,.94.17.94.47s-.47.58-1.17.58c-3.8,0-7.49-.17-9.12-.17-1.35,0-5,.17-7.31.17-.82,0-1.23-.17-1.23-.58s.24-.47.94-.47a10,10,0,0,0,2.1-.23c1.17-.24,1.46-1.52,1.7-3.22.29-2.46.29-7.07.29-12.45v-5.15a.34.34,0,0,0-.35-.35H314.4a.31.31,0,0,0-.35.35v5.15c0,5.38,0,10,.29,12.51.18,1.64.53,2.92,2.28,3.16a26.25,26.25,0,0,0,3,.23c.64,0,.93.17.93.47s-.47.58-1.17.58c-3.8,0-7.48-.17-9.12-.17-1.34,0-5,.17-7.37.17-.75,0-1.17-.17-1.17-.58s.24-.47.94-.47a10.08,10.08,0,0,0,2.11-.23c1.17-.24,1.46-1.52,1.69-3.22.29-2.46.29-7.07.29-12.45V103.05c0-8.89,0-10.53-.11-12.4s-.59-2.92-2.52-3.33a11.73,11.73,0,0,0-2.28-.18c-.64,0-1-.12-1-.52s.41-.53,1.23-.53c3.15,0,6.84.17,8.42.17,1.4,0,5.08-.17,7.36-.17.82,0,1.23.12,1.23.53s-.35.52-1.05.52a10.15,10.15,0,0,0-1.7.18c-1.58.29-2,1.28-2.16,3.33-.12,1.87-.12,3.51-.12,12.4v1.22c0,.3.18.41.35.41Z" transform="translate(-5.51 -7.48)"/><path class="cls-1" d="M363.58,103.05c0-8.89,0-10.53-.12-12.4s-.58-2.92-2.51-3.33a11.8,11.8,0,0,0-2.28-.18c-.65,0-1-.12-1-.52s.41-.53,1.29-.53c3.1,0,6.78.17,8,.17,2,0,6.43-.17,8.24-.17,3.69,0,7.6.35,10.76,2.51a10.14,10.14,0,0,1,4,8c0,4.33-1.82,8.31-7.72,13.1,5.2,6.55,9.24,11.75,12.69,15.38,3.27,3.39,5.67,3.8,6.55,4a9,9,0,0,0,1.63.18c.47,0,.71.18.71.47,0,.47-.42.58-1.12.58h-5.55c-3.27,0-4.74-.29-6.26-1.11-2.51-1.34-4.73-4.09-8-8.59-2.34-3.22-5-7.2-5.79-8.07a1.21,1.21,0,0,0-1.05-.41l-5.09-.12c-.29,0-.46.12-.46.47v.82c0,5.44,0,10,.29,12.51.17,1.7.52,3,2.28,3.22.88.11,2.16.23,2.86.23.47,0,.71.18.71.47s-.41.58-1.17.58c-3.39,0-7.72-.17-8.6-.17-1.11,0-4.79.17-7.13.17-.76,0-1.17-.17-1.17-.58s.23-.47.93-.47a10.08,10.08,0,0,0,2.11-.23c1.17-.24,1.46-1.52,1.7-3.22.29-2.46.29-7.07.29-12.45Zm6.9,4.61c0,.65.11.88.52,1.06a15.46,15.46,0,0,0,4.45.58c2.34,0,3.1-.23,4.15-1,1.75-1.29,3.45-4,3.45-8.77,0-8.31-5.5-10.7-8.95-10.7a13.23,13.23,0,0,0-3.1.23c-.41.12-.52.35-.52.82Z" transform="translate(-5.51 -7.48)"/><path class="cls-1" d="M407.72,103.05c0-8.89,0-10.53-.12-12.4s-.58-2.92-2.51-3.33a11.73,11.73,0,0,0-2.28-.18c-.64,0-1-.12-1-.52s.41-.53,1.28-.53c1.58,0,3.28.06,4.74.06s2.86.11,3.68.11c1.87,0,13.51,0,14.62-.05s2.05-.24,2.51-.35a5.64,5.64,0,0,1,.94-.24c.29,0,.35.24.35.53s-.29,1.11-.47,3.8c-.06.58-.17,3.16-.29,3.86-.06.29-.17.64-.59.64s-.52-.29-.52-.82a6.3,6.3,0,0,0-.35-2.1c-.41-1.06-1-1.76-3.92-2.11-1-.12-7.13-.23-8.3-.23-.29,0-.41.17-.41.58v14.8c0,.41.06.64.41.64,1.28,0,8,0,9.35-.12s2.28-.29,2.81-.88.64-.75.93-.75.42.11.42.46-.24,1.29-.47,4.27c-.06,1.17-.24,3.51-.24,3.92s0,1.11-.52,1.11a.47.47,0,0,1-.53-.53,16.52,16.52,0,0,0-.23-2.1c-.3-1.17-1.11-2-3.28-2.28-1.11-.12-6.9-.18-8.3-.18-.29,0-.35.24-.35.59v4.62c0,2-.06,7.36,0,9.06.12,4,1.05,4.91,7,4.91,1.52,0,4,0,5.49-.7s2.22-1.93,2.63-4.33c.12-.64.24-.88.64-.88s.47.47.47,1.06a46.29,46.29,0,0,1-.76,6.49c-.41,1.52-.93,1.52-3.15,1.52-4.39,0-7.6-.12-10.12-.18s-4.33-.17-6.08-.17c-.64,0-1.93,0-3.33.06s-2.87.11-4,.11c-.76,0-1.17-.17-1.17-.58s.24-.47.94-.47a9.89,9.89,0,0,0,2.1-.23c1.17-.24,1.47-1.52,1.7-3.22.29-2.46.29-7.07.29-12.45Z" transform="translate(-5.51 -7.48)"/><path class="cls-1" d="M441.46,129.59c-.94-.41-1.11-.7-1.11-2,0-3.21.23-6.72.29-7.66s.23-1.52.7-1.52.59.53.59,1a12.38,12.38,0,0,0,.52,3c1.29,4.33,4.74,5.9,8.36,5.9,5.27,0,7.84-3.56,7.84-6.66,0-2.87-.88-5.56-5.73-9.36l-2.69-2.1c-6.43-5-8.65-9.12-8.65-13.86,0-6.43,5.37-11,13.5-11a28.75,28.75,0,0,1,7.78,1c.53.12.82.3.82.71,0,.76-.24,2.45-.24,7,0,1.29-.17,1.76-.64,1.76s-.58-.35-.58-1.06a7.14,7.14,0,0,0-1.52-3.85A7.4,7.4,0,0,0,454.32,88c-4.32,0-6.95,2.51-6.95,6,0,2.69,1.34,4.74,6.19,8.42l1.64,1.23c7.07,5.32,9.59,9.36,9.59,14.91a11.77,11.77,0,0,1-5.5,10.17,16.88,16.88,0,0,1-9.29,2.4,20.25,20.25,0,0,1-8.54-1.52" transform="translate(-5.51 -7.48)"/><path class="cls-1" d="M481,115c-.29,0-.41.12-.52.47l-3.16,8.36a11.52,11.52,0,0,0-.88,3.57c0,1,.53,1.81,2.34,1.81h.88c.7,0,.88.12.88.47s-.35.58-1,.58c-1.87,0-4.38-.17-6.2-.17-.64,0-3.86.17-6.9.17-.76,0-1.11-.11-1.11-.58s.24-.47.7-.47a17.38,17.38,0,0,0,1.82-.12c2.69-.35,3.8-2.34,5-5.26l14.67-36.72c.7-1.69,1.06-2.34,1.64-2.34s.88.53,1.46,1.87c1.41,3.22,10.76,27.08,14.5,36,2.22,5.27,3.92,6.08,5.15,6.38a13.22,13.22,0,0,0,2.45.23c.47,0,.76.06.76.47s-.52.58-2.69.58-6.37,0-11.05-.11c-1.05-.06-1.75-.06-1.75-.47s.23-.47.82-.53a.94.94,0,0,0,.52-1.34l-4.67-12.4a.58.58,0,0,0-.59-.41ZM493,112.11c.29,0,.35-.18.29-.35L488,97.32c-.06-.24-.12-.53-.29-.53s-.29.29-.35.53L482,111.7c-.06.23,0,.41.23.41Z" transform="translate(-5.51 -7.48)"/><path class="cls-1" d="M266,186.38c0,1.57-.06,1.69-.76,2.1-3.8,2-9.53,2.63-14.09,2.63-14.33,0-27-6.78-27-22.92,0-9.35,4.85-15.9,10.17-19.12,5.61-3.39,10.82-3.8,15.73-3.8a69.43,69.43,0,0,1,10.35.94,39,39,0,0,0,4.62.64c.7.06.81.29.81.7a80.61,80.61,0,0,0-.4,9.59c0,.94-.18,1.23-.65,1.23s-.52-.29-.58-.76a8.2,8.2,0,0,0-2-4.85c-1.75-1.88-6.43-4.57-13-4.57-3.22,0-7.48.24-11.58,3.63-3.27,2.75-5.38,7.13-5.38,14.32,0,12.58,8,22,20.35,22a13,13,0,0,0,5-.64,2.08,2.08,0,0,0,1.11-2.17v-5.49c0-2.93,0-5.15-.06-6.9,0-2-.58-2.93-2.51-3.34a12.7,12.7,0,0,0-2.28-.17c-.53,0-.88-.12-.88-.47s.41-.58,1.23-.58c3,0,6.72.17,8.48.17s4.91-.17,6.84-.17c.76,0,1.17.11,1.17.58s-.35.47-.76.47a9.82,9.82,0,0,0-1.58.17c-1.58.3-2.16,1.29-2.22,3.34-.06,1.75-.06,4.09-.06,7Z" transform="translate(-5.51 -7.48)"/><path class="cls-1" d="M282.27,163.05c0-8.89,0-10.53-.11-12.4s-.59-2.92-2.52-3.33a11.73,11.73,0,0,0-2.28-.18c-.64,0-1-.11-1-.52s.41-.53,1.29-.53c3.09,0,6.78.18,8,.18,2,0,6.43-.18,8.24-.18,3.68,0,7.6.35,10.76,2.51a10.18,10.18,0,0,1,4,8c0,4.33-1.81,8.31-7.71,13.1,5.2,6.55,9.23,11.75,12.68,15.38,3.28,3.39,5.68,3.8,6.55,4a9.92,9.92,0,0,0,1.64.17c.47,0,.7.18.7.47,0,.47-.41.58-1.11.58h-5.55c-3.28,0-4.74-.29-6.26-1.11-2.52-1.34-4.74-4.09-8-8.59-2.34-3.22-5-7.19-5.79-8.07a1.21,1.21,0,0,0-1-.41l-5.09-.12a.41.41,0,0,0-.47.47v.82c0,5.44,0,10.06.3,12.51.17,1.7.52,3,2.28,3.22a28.54,28.54,0,0,0,2.86.23c.47,0,.7.18.7.47s-.41.58-1.17.58c-3.39,0-7.72-.17-8.59-.17-1.11,0-4.8.17-7.14.17-.75,0-1.16-.17-1.16-.58s.23-.47.93-.47a10.08,10.08,0,0,0,2.11-.23c1.17-.24,1.46-1.52,1.69-3.22.29-2.45.29-7.07.29-12.45Zm6.9,4.62c0,.64.12.87.53,1.05a15.39,15.39,0,0,0,4.44.58c2.34,0,3.1-.23,4.16-1,1.75-1.29,3.45-4,3.45-8.77,0-8.3-5.5-10.7-8.95-10.7a13.18,13.18,0,0,0-3.1.23c-.41.12-.53.35-.53.82Z" transform="translate(-5.51 -7.48)"/><path class="cls-1" d="M319.75,168.19c0-10,6.61-22.92,24.15-22.92,14.56,0,23.62,8.48,23.62,21.87s-9.35,24-24.2,24c-16.78,0-23.57-12.57-23.57-22.92m39.59,1.11c0-13.09-7.54-21.22-17.13-21.22-6.73,0-14.39,3.74-14.39,18.3,0,12.16,6.73,21.81,17.95,21.81,4.1,0,13.57-2,13.57-18.89" transform="translate(-5.51 -7.48)"/><path class="cls-1" d="M377.82,163.05c0-8.89,0-10.53-.12-12.4s-.59-2.92-2.52-3.33a11.66,11.66,0,0,0-2.28-.18c-.64,0-1-.11-1-.52s.41-.53,1.29-.53c3.1,0,6.78.18,8.53.18,1.41,0,5.09-.18,7.19-.18.88,0,1.29.12,1.29.53s-.35.52-.94.52a8.54,8.54,0,0,0-1.69.18c-1.58.29-2.05,1.28-2.16,3.33-.12,1.87-.12,3.51-.12,12.4v8.18c0,8.48,1.7,12.05,4.56,14.39a10.83,10.83,0,0,0,7.31,2.39,11.49,11.49,0,0,0,8.07-3.15c3.21-3.22,3.39-8.48,3.39-14.5v-7.31c0-8.89,0-10.53-.12-12.4s-.58-2.92-2.51-3.33a11.07,11.07,0,0,0-2.11-.18c-.64,0-1-.11-1-.52s.41-.53,1.23-.53c3,0,6.66.18,6.72.18.7,0,4.39-.18,6.67-.18.81,0,1.23.12,1.23.53s-.36.52-1.06.52a8.54,8.54,0,0,0-1.69.18c-1.58.29-2.05,1.28-2.17,3.33-.11,1.87-.11,3.51-.11,12.4v6.25c0,6.49-.65,13.39-5.56,17.6A17.43,17.43,0,0,1,396,191.11c-3.1,0-8.71-.17-13-4-3-2.69-5.2-7-5.2-15.5Z" transform="translate(-5.51 -7.48)"/><path class="cls-1" d="M430.15,163.05c0-8.89,0-10.53-.12-12.4s-.58-2.92-2.51-3.33a11.84,11.84,0,0,0-2.29-.18c-.64,0-1-.11-1-.52s.41-.53,1.29-.53c3.1,0,6.78.18,8.42.18,2.39,0,5.78-.18,8.47-.18,7.31,0,9.95,2.46,10.88,3.33a10.15,10.15,0,0,1,2.92,7c0,8.3-6.08,14.15-14.38,14.15a8.45,8.45,0,0,1-1.23-.06c-.29-.06-.7-.11-.7-.52s.41-.65,1.64-.65c3.27,0,7.83-3.68,7.83-9.64,0-1.93-.17-5.85-3.45-8.78a8.72,8.72,0,0,0-5.84-2.28,8,8,0,0,0-2.28.24c-.3.12-.47.47-.47,1.11v23.39c0,5.38,0,10,.29,12.51.18,1.64.53,2.92,2.28,3.16a26.25,26.25,0,0,0,3,.23c.65,0,.94.18.94.47s-.47.58-1.11.58c-3.86,0-7.55-.17-9.07-.17-1.34,0-5,.17-7.36.17-.76,0-1.17-.17-1.17-.58s.23-.47.93-.47a10.08,10.08,0,0,0,2.11-.23c1.17-.24,1.46-1.52,1.69-3.22.3-2.45.3-7.07.3-12.45Z" transform="translate(-5.51 -7.48)"/><path class="cls-1" d="M142.84,42.21l-1.45-4.73c-.06-.12-.14-.19-.24-.19H129.28c-.09,0-.17.07-.24.19l-1.4,4.73a.59.59,0,0,1-.62.49h-6.13a.57.57,0,0,1-.44-.17.54.54,0,0,1,0-.51L130.83,9.41a.59.59,0,0,1,.62-.49H139a.61.61,0,0,1,.63.49L150.08,42a.6.6,0,0,1,0,.24c0,.29-.18.44-.53.44h-6.13A.61.61,0,0,1,142.84,42.21ZM131,32h8.49c.2,0,.26-.09.2-.29l-4.35-14.33c0-.12-.08-.18-.14-.16s-.11.07-.15.16l-4.24,14.33C130.75,31.94,130.81,32,131,32Z" transform="translate(-5.51 -7.48)"/><path class="cls-1" d="M179.15,9.09a.55.55,0,0,1,.41-.17h5.64a.58.58,0,0,1,.58.58V42.12a.58.58,0,0,1-.17.41.57.57,0,0,1-.41.17h-5.64a.55.55,0,0,1-.41-.17.54.54,0,0,1-.17-.41V40.53c0-.1,0-.16-.1-.17a.18.18,0,0,0-.19.07,6.6,6.6,0,0,1-5.55,2.65,9.24,9.24,0,0,1-5.81-1.88,10.22,10.22,0,0,1-3.5-5.16A18.71,18.71,0,0,1,163,30.2a18.57,18.57,0,0,1,.87-6,10.39,10.39,0,0,1,3.49-4.9,9.51,9.51,0,0,1,5.91-1.81,6.56,6.56,0,0,1,5.41,2.41c.06.1.13.13.19.1a.2.2,0,0,0,.1-.19V9.5A.53.53,0,0,1,179.15,9.09Zm-.22,21.21a10.23,10.23,0,0,0-1.06-5.07,3.55,3.55,0,0,0-3.23-1.88,3.77,3.77,0,0,0-3.43,1.88A9.42,9.42,0,0,0,170,30.34a10.28,10.28,0,0,0,1,4.83,3.88,3.88,0,0,0,3.57,2.07A3.73,3.73,0,0,0,178,35.17,10.21,10.21,0,0,0,178.93,30.3Z" transform="translate(-5.51 -7.48)"/><path class="cls-1" d="M191.84,14a3.66,3.66,0,0,1-1.09-2.72,3.81,3.81,0,1,1,7.62,0A3.85,3.85,0,0,1,191.84,14Zm-.58,28.52a.54.54,0,0,1-.17-.41V18.43a.58.58,0,0,1,.58-.58h5.64a.53.53,0,0,1,.41.17.57.57,0,0,1,.17.41V42.12a.58.58,0,0,1-.17.41.57.57,0,0,1-.41.17h-5.64A.57.57,0,0,1,191.26,42.53Z" transform="translate(-5.51 -7.48)"/><path class="cls-1" d="M209.47,42.21l-7.72-23.69a.54.54,0,0,1-.05-.24c0-.29.18-.43.53-.43h6.23a.63.63,0,0,1,.67.48l4,14.62c0,.1.08.14.14.14s.11,0,.15-.14l4-14.62a.64.64,0,0,1,.68-.48l6.22.09a.56.56,0,0,1,.44.17.57.57,0,0,1,.05.51L217,42.21a.59.59,0,0,1-.62.49H210.1A.6.6,0,0,1,209.47,42.21Z" transform="translate(-5.51 -7.48)"/><path class="cls-1" d="M229.23,14a3.66,3.66,0,0,1-1.09-2.72,3.81,3.81,0,1,1,7.62,0A3.85,3.85,0,0,1,229.23,14Zm-.58,28.52a.54.54,0,0,1-.17-.41V18.43a.58.58,0,0,1,.58-.58h5.64a.53.53,0,0,1,.41.17.57.57,0,0,1,.17.41V42.12a.58.58,0,0,1-.17.41.57.57,0,0,1-.41.17h-5.64A.57.57,0,0,1,228.65,42.53Z" transform="translate(-5.51 -7.48)"/><path class="cls-1" d="M244.83,42.12a8.66,8.66,0,0,1-3.74-2.56,5.76,5.76,0,0,1-1.32-3.72v-.48a.54.54,0,0,1,.17-.41.55.55,0,0,1,.41-.17h5.35a.57.57,0,0,1,.41.17.58.58,0,0,1,.17.41v0a2.14,2.14,0,0,0,1.18,1.81,5.46,5.46,0,0,0,3,.75,4.86,4.86,0,0,0,2.65-.65,1.91,1.91,0,0,0,1-1.62,1.39,1.39,0,0,0-.87-1.3,14.6,14.6,0,0,0-2.85-.92,28.46,28.46,0,0,1-3.57-1.11,15.31,15.31,0,0,1-4.92-2.6,5.49,5.49,0,0,1-1.83-4.44,6.74,6.74,0,0,1,2.77-5.67,11.89,11.89,0,0,1,7.36-2.1,13.62,13.62,0,0,1,5.4,1,8.33,8.33,0,0,1,3.6,2.77,6.81,6.81,0,0,1,1.28,4.06.58.58,0,0,1-.17.41.57.57,0,0,1-.41.16h-5.17a.57.57,0,0,1-.41-.16.58.58,0,0,1-.17-.41,2.11,2.11,0,0,0-1.08-1.79,5.11,5.11,0,0,0-2.87-.72,5.2,5.2,0,0,0-2.61.58,1.76,1.76,0,0,0-1,1.59,1.54,1.54,0,0,0,1,1.44,16.66,16.66,0,0,0,3.3,1l1.21.31c.45.11.93.25,1.45.41a15.8,15.8,0,0,1,5.4,2.61,5.58,5.58,0,0,1,2,4.63A6.44,6.44,0,0,1,258.08,41a12.87,12.87,0,0,1-7.6,2A15.9,15.9,0,0,1,244.83,42.12Z" transform="translate(-5.51 -7.48)"/><path class="cls-1" d="M265.75,14a3.66,3.66,0,0,1-1.09-2.72,3.63,3.63,0,0,1,3.81-3.81,3.65,3.65,0,0,1,3.82,3.81,3.73,3.73,0,0,1-3.82,3.81A3.66,3.66,0,0,1,265.75,14Zm-.58,28.52a.58.58,0,0,1-.17-.41V18.43a.57.57,0,0,1,.17-.41.53.53,0,0,1,.41-.17h5.64a.52.52,0,0,1,.41.17.53.53,0,0,1,.17.41V42.12a.54.54,0,0,1-.17.41.55.55,0,0,1-.41.17h-5.64A.57.57,0,0,1,265.17,42.53Z" transform="translate(-5.51 -7.48)"/><path class="cls-1" d="M281.11,41a10.64,10.64,0,0,1-3.95-5.79,17.16,17.16,0,0,1-.68-4.92,18,18,0,0,1,.68-5.12,10.34,10.34,0,0,1,4-5.59,11.83,11.83,0,0,1,6.95-2,11.3,11.3,0,0,1,6.75,2,10.69,10.69,0,0,1,4,5.58,16.28,16.28,0,0,1,.77,5.06,17,17,0,0,1-.67,4.87A10.81,10.81,0,0,1,295,40.93a11.21,11.21,0,0,1-6.93,2.15A11.47,11.47,0,0,1,281.11,41Zm9.65-4.68a5.43,5.43,0,0,0,1.6-2.65,14.33,14.33,0,0,0,.38-3.38,13.48,13.48,0,0,0-.38-3.43,5.39,5.39,0,0,0-1.64-2.55,4.07,4.07,0,0,0-2.71-.92,4,4,0,0,0-2.72.92,5.08,5.08,0,0,0-1.57,2.55,11.41,11.41,0,0,0-.39,3.43,13.4,13.4,0,0,0,.34,3.38,5.25,5.25,0,0,0,1.62,2.65,4.13,4.13,0,0,0,2.77,1A4,4,0,0,0,290.76,36.28Z" transform="translate(-5.51 -7.48)"/><path class="cls-1" d="M323.14,19.88a8.67,8.67,0,0,1,2.36,6.41V42.12a.54.54,0,0,1-.17.41.57.57,0,0,1-.41.17h-5.64a.57.57,0,0,1-.41-.17.54.54,0,0,1-.17-.41V27.69a4.5,4.5,0,0,0-1.09-3.14,4,4,0,0,0-5.74,0,4.54,4.54,0,0,0-1.08,3.14V42.12a.58.58,0,0,1-.58.58h-5.65a.57.57,0,0,1-.41-.17.58.58,0,0,1-.17-.41V18.48a.57.57,0,0,1,.17-.41.53.53,0,0,1,.41-.17h5.65a.54.54,0,0,1,.41.17.57.57,0,0,1,.17.41v1.68a.2.2,0,0,0,.09.2.1.1,0,0,0,.15-.05,6.73,6.73,0,0,1,5.88-2.8A8.41,8.41,0,0,1,323.14,19.88Z" transform="translate(-5.51 -7.48)"/><path class="cls-1" d="M344,41a10.66,10.66,0,0,1-4-5.79,17.16,17.16,0,0,1-.67-4.92,18,18,0,0,1,.67-5.12,10.36,10.36,0,0,1,4-5.59,11.8,11.8,0,0,1,6.94-2,11.35,11.35,0,0,1,6.76,2,10.73,10.73,0,0,1,4,5.58,16.28,16.28,0,0,1,.78,5.06,17,17,0,0,1-.68,4.87,10.81,10.81,0,0,1-3.93,5.91A11.18,11.18,0,0,1,351,43.08,11.45,11.45,0,0,1,344,41Zm9.65-4.68a5.35,5.35,0,0,0,1.59-2.65,13.81,13.81,0,0,0,.39-3.38,13,13,0,0,0-.39-3.43,5.31,5.31,0,0,0-1.64-2.55,4.47,4.47,0,0,0-5.43,0,5.15,5.15,0,0,0-1.57,2.55,11.81,11.81,0,0,0-.38,3.43,13.48,13.48,0,0,0,.33,3.38,5.39,5.39,0,0,0,1.62,2.65,4.16,4.16,0,0,0,2.78,1A4,4,0,0,0,353.68,36.28Z" transform="translate(-5.51 -7.48)"/><path class="cls-1" d="M380.77,18a.57.57,0,0,1,.17.41V23a.58.58,0,0,1-.58.58h-4.68a.21.21,0,0,0-.24.24V42.12a.58.58,0,0,1-.58.58h-5.65a.58.58,0,0,1-.58-.58V23.83a.21.21,0,0,0-.24-.24h-2.84a.55.55,0,0,1-.41-.17A.53.53,0,0,1,365,23V18.43a.53.53,0,0,1,.17-.41.52.52,0,0,1,.41-.17h2.84a.21.21,0,0,0,.24-.24V16.55a9.77,9.77,0,0,1,.92-4.66,5.06,5.06,0,0,1,3-2.36,16.76,16.76,0,0,1,5.67-.61H380a.58.58,0,0,1,.58.58v3.91A.58.58,0,0,1,380,14h-1.59a3.37,3.37,0,0,0-2.34.7,3.34,3.34,0,0,0-.65,2.39v.53a.21.21,0,0,0,.24.24h4.68A.53.53,0,0,1,380.77,18Z" transform="translate(-5.51 -7.48)"/><path class="cls-1" d="M388.29,25.59a3.69,3.69,0,0,1-1.08-2.72,3.81,3.81,0,1,1,7.62,0,3.85,3.85,0,0,1-6.54,2.72Zm0,15.78a4,4,0,0,1,0-5.48,3.81,3.81,0,0,1,6.56,2.75,3.86,3.86,0,0,1-6.54,2.73Z" transform="translate(-5.51 -7.48)"/></svg>